<svg width="103" height="39" viewBox="0 0 103 39" fill="none" xmlns="http://www.w3.org/2000/svg">
<g clip-path="url(#clip0_79_13)">
<path d="M14.6497 20.1318L14.0624 21.0709L13.9282 21.2246L6.56142 28.9939L6.42717 29.4378L6.64532 29.8306L7.16553 29.9842H23.4932L23.963 29.8647L24.2986 29.6086L27.6716 26.0569L28.0743 25.6813L28.6113 25.5276H29.9034L30.1887 25.6813L30.7256 26.0569L30.9774 26.5692V27.44L30.7928 27.8327L26.1445 32.8017L25.5404 33.2115L25.0034 33.5188H1.49364L1.24193 33.3993L0.939882 33.2798L0.604267 32.9724C0.525958 32.8927 0.3492 32.6787 0.268653 32.4602C0.188106 32.2416 0.167969 32.0048 0.167969 31.9137L0.369337 31.1795L0.805636 30.6331L11.5117 19.0902L12.0487 18.8341L13.7436 18.8682L14.1799 19.039L14.4148 19.2268L14.6497 19.6366V20.1318Z" fill="url(#paint0_linear_79_13)" stroke="#24D0D5" stroke-width="2"/>
<path d="M17.7541 16.8021L18.3246 16.3069L30.4906 3.07355L30.8766 2.61252L31.1115 2.20271V1.80998L31.0444 1.3148L30.8766 0.922065C30.7591 0.768387 30.5175 0.461032 30.4906 0.461032C30.4638 0.461032 30.211 0.290279 30.0879 0.204902L29.4502 0.0341492H7.93737H7.75278L7.33326 0.187827L6.88018 0.478107L4.26239 3.19308L3.94356 3.61996L3.75897 3.99562L3.74219 4.59326L3.80931 4.81524L3.90999 5.05429L4.16171 5.32749L4.48054 5.58362L4.78259 5.68608H6.07471L6.54457 5.58362L7.09833 5.12259L8.35688 3.87609L8.62537 3.60289L8.8603 3.48336H9.2127H23.577L23.8287 3.60289L24.114 3.73949L24.2818 3.84194L24.3825 4.06392V4.47373L24.2482 4.71278L14.7671 14.8726L14.3812 15.2482L14.1798 15.6581L14.0959 16.0166L14.1462 16.3923L14.2637 16.6313L14.3812 16.8021L14.5154 16.8875L14.7671 17.0753L15.2034 17.2119H16.7808L17.1668 17.0753L17.7541 16.8021Z" fill="url(#paint1_linear_79_13)" stroke="#24D0D5" stroke-width="2"/>
<path d="M102.969 19.8973V34.7994H100.381V19.8973H102.969Z" fill="black"/>
<path d="M92.3807 35.0249C91.6847 35.0249 91.0577 34.8989 90.4999 34.6469C89.9472 34.3897 89.5085 34.0112 89.1843 33.5116C88.8648 33.0119 88.7051 32.3959 88.7051 31.6634C88.7051 31.0328 88.8195 30.5113 89.0484 30.0989C89.2773 29.6866 89.5894 29.3568 89.9851 29.1094C90.3808 28.8619 90.8265 28.6752 91.3225 28.5491C91.8229 28.4181 92.3401 28.3235 92.8741 28.2653C93.5178 28.1974 94.0397 28.1367 94.4404 28.0834C94.8408 28.0252 95.1314 27.9379 95.3126 27.8214C95.4986 27.7001 95.5915 27.5134 95.5915 27.2611V27.2175C95.5915 26.6693 95.4318 26.2449 95.1123 25.9441C94.7931 25.6434 94.333 25.493 93.7322 25.493C93.0983 25.493 92.5952 25.6337 92.2233 25.915C91.8565 26.1964 91.6085 26.5286 91.4799 26.9119L89.0628 26.5626C89.2535 25.8835 89.5679 25.3159 90.0066 24.8599C90.4452 24.3991 90.9815 24.0547 91.6155 23.8267C92.2498 23.5938 92.9506 23.4774 93.7181 23.4774C94.2471 23.4774 94.774 23.5405 95.2982 23.6666C95.8228 23.7927 96.3017 24.0013 96.7357 24.2924C97.1696 24.5786 97.5176 24.9691 97.7797 25.4639C98.0466 25.9587 98.1801 26.5772 98.1801 27.3194V34.7995H95.6916V33.2642H95.606C95.4486 33.5746 95.2267 33.8657 94.9408 34.1374C94.6595 34.404 94.3045 34.6199 93.8752 34.7848C93.451 34.945 92.9529 35.0249 92.3807 35.0249ZM93.053 33.0896C93.5725 33.0896 94.0232 32.9853 94.4045 32.7767C94.7857 32.5632 95.0791 32.2819 95.2841 31.9326C95.4939 31.5833 95.5986 31.2025 95.5986 30.7902V29.4732C95.5177 29.5411 95.3794 29.6041 95.1838 29.6624C94.9931 29.7206 94.7787 29.7715 94.5404 29.8152C94.3021 29.8588 94.0658 29.8976 93.8323 29.9316C93.5987 29.9656 93.3963 29.9947 93.2245 30.0189C92.8385 30.0723 92.4928 30.1596 92.1877 30.2809C91.8827 30.4021 91.6417 30.5719 91.4655 30.7902C91.289 31.0036 91.201 31.2801 91.201 31.6197C91.201 32.1048 91.3749 32.4711 91.7229 32.7184C92.071 32.9659 92.5143 33.0896 93.053 33.0896Z" fill="black"/>
<path d="M87.4588 23.6229V25.6603H81.1445V23.6229H87.4588ZM82.7035 20.9452H85.2921V31.4378C85.2921 31.7919 85.3444 32.0635 85.4495 32.2527C85.5589 32.4371 85.7022 32.5632 85.8784 32.6311C86.0549 32.699 86.2502 32.733 86.4647 32.733C86.6268 32.733 86.7748 32.7208 86.908 32.6966C87.0463 32.6723 87.1513 32.6505 87.2228 32.6311L87.6591 34.6902C87.5209 34.7387 87.3229 34.7923 87.0654 34.8504C86.8127 34.9088 86.5029 34.9426 86.1358 34.9521C85.4874 34.9716 84.9034 34.8722 84.3839 34.654C83.8643 34.4307 83.4519 34.0864 83.1468 33.6207C82.8464 33.155 82.6988 32.5729 82.7035 31.8743V20.9452Z" fill="black"/>
<path d="M77.1261 34.7995V23.6229H79.7147V34.7995H77.1261ZM78.4277 22.0366C78.0175 22.0366 77.6648 21.8984 77.3691 21.6219C77.0738 21.3405 76.9258 21.0034 76.9258 20.6105C76.9258 20.2127 77.0738 19.8756 77.3691 19.599C77.6648 19.3177 78.0175 19.177 78.4277 19.177C78.8425 19.177 79.1952 19.3177 79.4858 19.599C79.7815 19.8756 79.9292 20.2127 79.9292 20.6105C79.9292 21.0034 79.7815 21.3405 79.4858 21.6219C79.1952 21.8984 78.8425 22.0366 78.4277 22.0366Z" fill="black"/>
<path d="M64.9434 38.9908V23.6229H67.489V25.4711H67.6393C67.7726 25.1995 67.9612 24.9108 68.2042 24.6052C68.4472 24.2947 68.7764 24.0304 69.1909 23.8121C69.6057 23.589 70.135 23.4774 70.7783 23.4774C71.6271 23.4774 72.3923 23.6981 73.0739 24.1395C73.7603 24.5761 74.304 25.2237 74.7044 26.0823C75.1094 26.9361 75.3122 27.9839 75.3122 29.2258C75.3122 30.453 75.1141 31.496 74.7185 32.3546C74.3228 33.2132 73.7841 33.8681 73.1025 34.3193C72.4208 34.7704 71.6486 34.9958 70.7857 34.9958C70.1564 34.9958 69.6342 34.8893 69.2198 34.6759C68.8049 34.4624 68.471 34.2053 68.2186 33.9045C67.9706 33.5989 67.7776 33.3102 67.6393 33.0386H67.5319V38.9908H64.9434ZM67.4819 29.2112C67.4819 29.934 67.582 30.567 67.7823 31.1103C67.9874 31.6536 68.2804 32.0781 68.662 32.3837C69.0479 32.6845 69.5151 32.8348 70.0635 32.8348C70.6354 32.8348 71.1146 32.6796 71.5006 32.3691C71.8869 32.0538 72.1775 31.6245 72.3732 31.0812C72.5732 30.5331 72.6736 29.9097 72.6736 29.2112C72.6736 28.5175 72.5759 27.9014 72.3802 27.363C72.1849 26.8245 71.8939 26.4025 71.508 26.0969C71.1217 25.7913 70.6401 25.6385 70.0635 25.6385C69.5104 25.6385 69.0409 25.7864 68.6546 26.0823C68.2686 26.3782 67.9753 26.793 67.7753 27.3266C67.5796 27.8602 67.4819 28.4884 67.4819 29.2112Z" fill="black"/>
<path d="M56.9432 35.0249C56.2472 35.0249 55.6202 34.8989 55.0624 34.6469C54.5094 34.3897 54.0707 34.0112 53.7465 33.5116C53.4273 33.0119 53.2676 32.3959 53.2676 31.6634C53.2676 31.0328 53.382 30.5113 53.6109 30.0989C53.8395 29.6866 54.1519 29.3568 54.5476 29.1094C54.9433 28.8619 55.389 28.6752 55.8847 28.5491C56.3854 28.4181 56.9026 28.3235 57.4366 28.2653C58.08 28.1974 58.6022 28.1367 59.0026 28.0834C59.4029 28.0252 59.6939 27.9379 59.8748 27.8214C60.0607 27.7001 60.1537 27.5134 60.1537 27.2611V27.2175C60.1537 26.6693 59.994 26.2449 59.6748 25.9441C59.3553 25.6434 58.8952 25.493 58.2947 25.493C57.6604 25.493 57.1577 25.6337 56.7858 25.915C56.4187 26.1964 56.1706 26.5286 56.0421 26.9119L53.625 26.5626C53.8156 25.8835 54.1304 25.3159 54.5691 24.8599C55.0077 24.3991 55.5441 24.0547 56.178 23.8267C56.812 23.5938 57.5128 23.4774 58.2803 23.4774C58.8096 23.4774 59.3362 23.5405 59.8607 23.6666C60.385 23.7927 60.8642 24.0013 61.2978 24.2924C61.7318 24.5786 62.0798 24.9691 62.3419 25.4639C62.6091 25.9587 62.7423 26.5772 62.7423 27.3194V34.7995H60.2541V33.2642H60.1681C60.0107 33.5746 59.7892 33.8657 59.503 34.1374C59.2217 34.404 58.8666 34.6199 58.4377 34.7848C58.0132 34.945 57.5151 35.0249 56.9432 35.0249ZM57.6151 33.0896C58.135 33.0896 58.5854 32.9853 58.9666 32.7767C59.3482 32.5632 59.6412 32.2819 59.8463 31.9326C60.056 31.5833 60.1611 31.2025 60.1611 30.7902V29.4732C60.0799 29.5411 59.9416 29.6041 59.7463 29.6624C59.5556 29.7206 59.3409 29.7715 59.1026 29.8152C58.8643 29.8588 58.6283 29.8976 58.3948 29.9316C58.1612 29.9656 57.9585 29.9947 57.787 30.0189C57.4007 30.0723 57.055 30.1596 56.7499 30.2809C56.4448 30.4021 56.2042 30.5719 56.0277 30.7902C55.8515 31.0036 55.7632 31.2801 55.7632 31.6197C55.7632 32.1048 55.9371 32.4711 56.2851 32.7184C56.6331 32.9659 57.0765 33.0896 57.6151 33.0896Z" fill="black"/>
<path d="M51.8703 24.9253H49.1958C49.1196 24.4791 48.979 24.0837 48.7739 23.7393C48.5688 23.39 48.3138 23.0941 48.0087 22.8516C47.7036 22.609 47.3556 22.4271 46.9646 22.3059C46.5786 22.1797 46.1615 22.1167 45.7134 22.1167C44.917 22.1167 44.2116 22.3204 43.5967 22.7279C42.9815 23.1305 42.5003 23.7223 42.1522 24.5033C41.8042 25.2795 41.63 26.2278 41.63 27.3484C41.63 28.4884 41.8042 29.4489 42.1522 30.2299C42.505 31.006 42.9866 31.593 43.5967 31.9908C44.2116 32.3837 44.9147 32.5801 45.7061 32.5801C46.1447 32.5801 46.5548 32.5219 46.9361 32.4055C47.3224 32.2842 47.6677 32.1072 47.9731 31.8743C48.2829 31.6415 48.5427 31.3553 48.7524 31.0157C48.9669 30.6761 49.1149 30.2881 49.1958 29.8515L51.8703 29.866C51.7703 30.5743 51.5531 31.2389 51.2195 31.8598C50.8906 32.4807 50.459 33.0288 49.9251 33.5042C49.3911 33.9748 48.7669 34.3435 48.0517 34.6103C47.3365 34.8722 46.5427 35.0033 45.6705 35.0033C44.3834 35.0033 43.2343 34.7001 42.2237 34.0936C41.2132 33.4873 40.4168 32.6117 39.8352 31.4669C39.2535 30.322 38.9629 28.9492 38.9629 27.3484C38.9629 25.7427 39.2562 24.3699 39.8425 23.23C40.4289 22.0851 41.2273 21.2096 42.2382 20.6032C43.2487 19.9968 44.3928 19.6936 45.6705 19.6936C46.4857 19.6936 47.2435 19.8101 47.9443 20.0429C48.645 20.2757 49.2696 20.6177 49.818 21.0688C50.3661 21.5151 50.8168 22.0633 51.1695 22.7133C51.5269 23.3585 51.7605 24.0959 51.8703 24.9253Z" fill="black"/>
<path d="M73.6991 17.9497C73.003 17.9497 72.3761 17.8236 71.8183 17.5713C71.2652 17.3143 70.8269 16.9359 70.5027 16.4362C70.1832 15.9366 70.0234 15.3205 70.0234 14.588C70.0234 13.9574 70.1379 13.4359 70.3668 13.0236C70.5957 12.6113 70.9078 12.2814 71.3035 12.034C71.6992 11.7866 72.1449 11.5999 72.6406 11.4737C73.1413 11.3427 73.6585 11.2482 74.1924 11.19C74.8361 11.122 75.358 11.0614 75.7584 11.008C76.1588 10.9498 76.4498 10.8625 76.631 10.7461C76.8169 10.6248 76.9099 10.4381 76.9099 10.1858V10.1421C76.9099 9.594 76.7502 9.16954 76.4307 8.86878C76.1111 8.56801 75.6514 8.41765 75.0506 8.41765C74.4166 8.41765 73.9135 8.55831 73.5417 8.83968C73.1745 9.12101 72.9268 9.4533 72.798 9.83654L70.3809 9.48728C70.5718 8.80812 70.8863 8.24058 71.325 7.7846C71.7636 7.32373 72.2999 6.97932 72.9339 6.75133C73.5679 6.5185 74.2686 6.40208 75.0362 6.40208C75.5654 6.40208 76.092 6.46512 76.6166 6.59127C77.1408 6.71739 77.6201 6.92598 78.054 7.21701C78.4876 7.50323 78.8357 7.89374 79.0978 8.38852C79.3649 8.88332 79.4985 9.50183 79.4985 10.244V17.7242H77.0099V16.1889H76.924C76.7666 16.4993 76.5451 16.7904 76.2592 17.062C75.9779 17.3288 75.6225 17.5447 75.1936 17.7096C74.7694 17.8697 74.271 17.9497 73.6991 17.9497ZM74.3713 16.0142C74.8909 16.0142 75.3412 15.9099 75.7228 15.7013C76.1041 15.4879 76.3974 15.2065 76.6021 14.8573C76.8119 14.508 76.917 14.1272 76.917 13.7149V12.3978C76.8357 12.4658 76.6975 12.5288 76.5021 12.587C76.3115 12.6452 76.0971 12.6962 75.8584 12.7398C75.6201 12.7835 75.3842 12.8223 75.1506 12.8562C74.917 12.8902 74.7143 12.9193 74.5428 12.9436C74.1565 12.9969 73.8112 13.0842 73.5058 13.2055C73.2007 13.3268 72.9601 13.4966 72.7835 13.7149C72.6073 13.9283 72.5191 14.2048 72.5191 14.5444C72.5191 15.0295 72.6933 15.3957 73.0413 15.6431C73.389 15.8905 73.8323 16.0142 74.3713 16.0142Z" fill="black"/>
<path d="M63.1543 17.7242V6.54764H65.6644V8.41042H65.7788C65.9788 7.76524 66.3222 7.26801 66.8085 6.91875C67.2995 6.56461 67.8596 6.38757 68.4889 6.38757C68.6319 6.38757 68.7916 6.39485 68.9678 6.4094C69.149 6.41909 69.2994 6.43607 69.4185 6.46031V8.88337C69.3088 8.84457 69.1349 8.81059 68.8963 8.7815C68.6627 8.74755 68.4365 8.73058 68.217 8.73058C67.7452 8.73058 67.3209 8.83487 66.9444 9.04347C66.5725 9.24721 66.2792 9.53097 66.0647 9.89481C65.8503 10.2586 65.7429 10.6782 65.7429 11.1536V17.7242H63.1543Z" fill="black"/>
<path d="M53.5636 21.9154C53.2108 21.9154 52.8843 21.8863 52.5839 21.8281C52.2882 21.7747 52.0523 21.7116 51.8758 21.6389L52.4765 19.5869C52.8531 19.6985 53.1894 19.7519 53.4847 19.747C53.7804 19.7422 54.0401 19.6476 54.2643 19.4632C54.4932 19.2838 54.6862 18.983 54.8436 18.561L55.0651 17.957L51.082 6.54759H53.828L56.3596 14.9882H56.474L59.0126 6.54759H61.7656L57.3677 19.0776C57.1627 19.6694 56.8912 20.1763 56.5525 20.5983C56.2139 21.0252 55.7994 21.3502 55.3084 21.5734C54.8221 21.8014 54.2405 21.9154 53.5636 21.9154Z" fill="black"/>
<path d="M39.0641 17.7241V16.0433L46.5728 5.08497H39.0215V2.82202H49.8622V4.50287L42.3608 15.4612H49.9048V17.7241H39.0641Z" fill="black"/>
</g>
<defs>
<linearGradient id="paint0_linear_79_13" x1="26.9508" y1="27.9699" x2="8.03813" y2="15.6057" gradientUnits="userSpaceOnUse">
<stop offset="0.274038" stop-color="#24D0D5"/>
<stop offset="1" stop-color="#A6E7FB"/>
</linearGradient>
<linearGradient id="paint1_linear_79_13" x1="27.5345" y1="10.721" x2="8.29519" y2="1.16911" gradientUnits="userSpaceOnUse">
<stop offset="0.274038" stop-color="#24D0D5"/>
<stop offset="1" stop-color="#A6E7FB"/>
</linearGradient>
<clipPath id="clip0_79_13">
<rect width="103" height="39" fill="white"/>
</clipPath>
</defs>
</svg>
